<svg width="75" height="75" viewBox="0 0 75 75" fill="none" xmlns="http://www.w3.org/2000/svg">
<g filter="url(#filter0_d_17_1059)">
<rect x="10" width="55" height="55" rx="27.5" fill="url(#paint0_linear_17_1059)"/>
</g>
<path d="M37.559 20.6641C33.715 20.6641 30.603 23.7389 30.603 27.5294C30.603 31.3233 33.7184 34.3947 37.559 34.3947C41.4029 34.3947 44.5149 31.3199 44.5149 27.5294C44.5149 23.7355 41.3995 20.6641 37.559 20.6641ZM37.559 31.9855C35.0637 31.9855 33.044 29.991 33.044 27.5294C33.044 25.0678 35.0649 23.0733 37.559 23.0733C40.0531 23.0733 42.0739 25.0678 42.0739 27.5294C42.075 29.991 40.0542 31.9855 37.559 31.9855Z" fill="#FFFDFA" stroke="#FFFDFA" stroke-width="0.4"/>
<path d="M43.1443 14.2403C40.6502 14.1255 34.4725 14.131 31.9762 14.2403C29.7825 14.3417 27.8476 14.8646 26.2876 16.4043C23.6806 18.9774 24.0138 22.4446 24.0138 27.5295C24.0138 32.7337 23.7201 36.1207 26.2876 38.6548C28.9049 41.2368 32.4687 40.899 37.5596 40.899C42.7828 40.899 44.5856 40.9023 46.4324 40.1966C48.9435 39.2345 50.8389 37.0192 51.0242 33.0403C51.1416 30.5775 51.1349 24.4815 51.0242 22.0176C50.8005 17.3207 48.2465 14.4722 43.1443 14.2403ZM47.0921 36.9524C45.3831 38.6391 43.0121 38.4886 37.5269 38.4886C31.879 38.4886 29.6142 38.5711 27.9617 36.9356C26.0583 35.066 26.4029 32.0637 26.4029 27.5117C26.4029 21.352 25.7624 16.916 32.0259 16.5994C33.4649 16.5492 33.8885 16.5325 37.5111 16.5325L37.5619 16.5659C43.5814 16.5659 48.3041 15.9438 48.5877 22.1246C48.6521 23.5349 48.6667 23.9586 48.6667 27.5284C48.6656 33.0381 48.7718 35.2867 47.0921 36.9524Z" fill="#FFFDFA" stroke="#FFFDFA" stroke-width="0.4"/>
<path d="M44.791 21.9977C45.6887 21.9977 46.4164 21.2794 46.4164 20.3934C46.4164 19.5073 45.6887 18.7891 44.791 18.7891C43.8933 18.7891 43.1655 19.5073 43.1655 20.3934C43.1655 21.2794 43.8933 21.9977 44.791 21.9977Z" fill="#FFFDFA"/>
<defs>
<filter id="filter0_d_17_1059" x="0" y="0" width="75" height="75" filterUnits="userSpaceOnUse" color-interpolation-filters="sRGB">
<feFlood flood-opacity="0" result="BackgroundImageFix"/>
<feColorMatrix in="SourceAlpha" type="matrix" values="0 0 0 0 0 0 0 0 0 0 0 0 0 0 0 0 0 0 127 0" result="hardAlpha"/>
<feOffset dy="10"/>
<feGaussianBlur stdDeviation="5"/>
<feColorMatrix type="matrix" values="0 0 0 0 0 0 0 0 0 0 0 0 0 0 0 0 0 0 0.12 0"/>
<feBlend mode="normal" in2="BackgroundImageFix" result="effect1_dropShadow_17_1059"/>
<feBlend mode="normal" in="SourceGraphic" in2="effect1_dropShadow_17_1059" result="shape"/>
</filter>
<linearGradient id="paint0_linear_17_1059" x1="37.5" y1="0" x2="37.5" y2="55" gradientUnits="userSpaceOnUse">
<stop stop-color="#C2019A"/>
<stop offset="1" stop-color="#EE0018"/>
</linearGradient>
</defs>
</svg>
