<svg width="199" height="29" viewBox="0 0 199 29" fill="none" xmlns="http://www.w3.org/2000/svg">
<path fill-rule="evenodd" clip-rule="evenodd" d="M138.393 9.53699C136.987 7.98299 135.1 7.20599 132.732 7.20599C131.104 7.20599 129.661 7.60066 128.403 8.38999C127.17 9.15466 126.282 10.2277 125.739 11.609V0.619995H120.522V28H125.739V17.122C125.739 15.3213 126.183 13.94 127.071 12.978C127.959 12.016 129.143 11.535 130.623 11.535C132.079 11.535 133.226 11.9913 134.064 12.904C134.903 13.792 135.322 15.05 135.322 16.678V28H140.502V16.086C140.502 13.274 139.799 11.091 138.393 9.53699ZM13.3199 28V23.523H11.2849C10.3476 23.523 9.68157 23.3257 9.28691 22.931C8.89224 22.5363 8.69491 21.8457 8.69491 20.859V11.905H13.2829V7.50199H8.69491V2.43299H3.47791V7.50199H0.628906V11.905H3.47791V20.785C3.47791 23.375 4.08224 25.225 5.29091 26.335C6.52424 27.445 8.28791 28 10.5819 28H13.3199ZM29.543 8.464C28.3096 7.64999 26.8296 7.24299 25.103 7.24299C23.3763 7.24299 21.8223 7.66233 20.441 8.50099C19.0596 9.33966 17.9743 10.5607 17.185 12.164C16.4203 13.7427 16.038 15.605 16.038 17.751C16.038 19.897 16.4203 21.7717 17.185 23.375C17.9743 24.9537 19.0596 26.1623 20.441 27.001C21.8223 27.8397 23.3763 28.259 25.103 28.259C26.8296 28.259 28.3096 27.852 29.543 27.038C30.7763 26.1993 31.652 25.0893 32.17 23.708V28H37.35V7.50199H32.17V11.757C31.652 10.3757 30.7763 9.278 29.543 8.464ZM22.809 13.385C23.7956 12.3243 25.103 11.794 26.731 11.794C28.3096 11.794 29.6046 12.3367 30.616 13.422C31.652 14.4827 32.17 15.9257 32.17 17.751C32.17 19.5517 31.652 20.9947 30.616 22.08C29.6046 23.1407 28.3096 23.671 26.731 23.671C25.103 23.671 23.7956 23.153 22.809 22.117C21.8223 21.0563 21.329 19.601 21.329 17.751C21.329 15.901 21.8223 14.4457 22.809 13.385ZM68.1629 7.20599C70.6542 7.20599 72.6152 7.98299 74.0459 9.53699C75.5012 11.0663 76.2289 13.2493 76.2289 16.086V28H71.0489V16.678C71.0489 15.0993 70.6419 13.8907 69.8279 13.052C69.0385 12.1887 67.9409 11.757 66.5349 11.757C65.0795 11.757 63.9202 12.2133 63.0569 13.126C62.1935 14.0387 61.7619 15.3707 61.7619 17.122V28H56.5819V16.678C56.5819 15.0993 56.1749 13.8907 55.3609 13.052C54.5715 12.1887 53.4739 11.757 52.0679 11.757C50.6125 11.757 49.4532 12.2133 48.5899 13.126C47.7265 14.0387 47.2949 15.3707 47.2949 17.122V28H42.0779V7.50199H47.2949V11.387C47.8375 10.055 48.6885 9.03133 49.8479 8.316C51.0319 7.57599 52.4009 7.20599 53.9549 7.20599C55.6075 7.20599 57.0382 7.60066 58.2469 8.38999C59.4802 9.17933 60.4052 10.314 61.0219 11.794C61.6632 10.388 62.6129 9.278 63.8709 8.464C65.1535 7.62533 66.5842 7.20599 68.1629 7.20599ZM93.2812 8.464C92.0479 7.64999 90.5679 7.24299 88.8412 7.24299C87.1146 7.24299 85.5606 7.66233 84.1792 8.50099C82.7979 9.33966 81.7126 10.5607 80.9232 12.164C80.1586 13.7427 79.7762 15.605 79.7762 17.751C79.7762 19.897 80.1586 21.7717 80.9232 23.375C81.7126 24.9537 82.7979 26.1623 84.1792 27.001C85.5606 27.8397 87.1146 28.259 88.8412 28.259C90.5679 28.259 92.0479 27.852 93.2812 27.038C94.5146 26.1993 95.3903 25.0893 95.9082 23.708V28H101.088V7.50199H95.9082V11.757C95.3903 10.3757 94.5146 9.278 93.2812 8.464ZM86.5472 13.385C87.5339 12.3243 88.8412 11.794 90.4692 11.794C92.0479 11.794 93.3429 12.3367 94.3542 13.422C95.3903 14.4827 95.9082 15.9257 95.9082 17.751C95.9082 19.5517 95.3903 20.9947 94.3542 22.08C93.3429 23.1407 92.0479 23.671 90.4692 23.671C88.8412 23.671 87.5339 23.153 86.5472 22.117C85.5606 21.0563 85.0672 19.601 85.0672 17.751C85.0672 15.901 85.5606 14.4457 86.5472 13.385ZM116.768 23.523V28H114.03C111.736 28 109.972 27.445 108.739 26.335C107.53 25.225 106.926 23.375 106.926 20.785V11.905H104.077V7.50199H106.926V2.43299H112.143V7.50199H116.731V11.905H112.143V20.859C112.143 21.8457 112.34 22.5363 112.735 22.931C113.13 23.3257 113.796 23.523 114.733 23.523H116.768ZM164.37 16.974C164.37 17.492 164.308 18.084 164.185 18.75H149.163C149.237 20.5753 149.73 21.9197 150.643 22.783C151.555 23.6463 152.69 24.078 154.047 24.078C155.255 24.078 156.254 23.782 157.044 23.19C157.858 22.598 158.376 21.7963 158.598 20.785H164.111C163.839 22.2157 163.26 23.4983 162.372 24.633C161.484 25.7677 160.337 26.6557 158.931 27.297C157.549 27.9383 156.008 28.259 154.306 28.259C152.308 28.259 150.532 27.8397 148.978 27.001C147.424 26.1377 146.215 24.9167 145.352 23.338C144.488 21.7593 144.057 19.897 144.057 17.751C144.057 15.605 144.488 13.7427 145.352 12.164C146.215 10.5607 147.424 9.33966 148.978 8.50099C150.532 7.66233 152.308 7.24299 154.306 7.24299C156.328 7.24299 158.092 7.66233 159.597 8.50099C161.126 9.33966 162.298 10.499 163.112 11.979C163.95 13.4343 164.37 15.0993 164.37 16.974ZM159.116 16.456C159.19 14.7787 158.746 13.5083 157.784 12.645C156.846 11.7817 155.687 11.35 154.306 11.35C152.9 11.35 151.716 11.7817 150.754 12.645C149.792 13.5083 149.261 14.7787 149.163 16.456H159.116ZM168.332 16.974C168.332 17.492 168.394 18.084 168.517 18.75H183.539C183.465 20.5753 182.972 21.9197 182.059 22.783C181.146 23.6463 180.012 24.078 178.655 24.078C177.446 24.078 176.447 23.782 175.658 23.19C174.844 22.598 174.326 21.7963 174.104 20.785H168.591C168.862 22.2156 169.442 23.4983 170.33 24.633C171.218 25.7676 172.365 26.6557 173.771 27.297C175.152 27.9383 176.694 28.259 178.396 28.259C180.394 28.259 182.17 27.8396 183.724 27.001C185.278 26.1376 186.487 24.9167 187.35 23.338C188.213 21.7593 188.645 19.897 188.645 17.751C188.645 15.605 188.213 13.7426 187.35 12.164C186.487 10.5606 185.278 9.33965 183.724 8.50098C182.17 7.66231 180.394 7.24298 178.396 7.24298C176.373 7.24298 174.61 7.66231 173.105 8.50098C171.576 9.33965 170.404 10.499 169.59 11.979C168.751 13.4343 168.332 15.0993 168.332 16.974ZM173.586 16.456C173.512 14.7786 173.956 13.5083 174.918 12.645C175.855 11.7816 177.015 11.35 178.396 11.35C179.802 11.35 180.986 11.7816 181.948 12.645C182.91 13.5083 183.44 14.7786 183.539 16.456H173.586ZM197.585 28V0.619995H192.368V28H197.585Z" fill="white"/>
<path d="M138.393 9.53699L138.022 9.87245L138.022 9.87245L138.393 9.53699ZM128.403 8.38999L128.667 8.81495L128.669 8.81353L128.403 8.38999ZM125.739 11.609H125.239L126.205 11.7918L125.739 11.609ZM125.739 0.619995H126.239V0.119995H125.739V0.619995ZM120.522 0.619995V0.119995H120.022V0.619995H120.522ZM120.522 28H120.022V28.5H120.522V28ZM125.739 28V28.5H126.239V28H125.739ZM134.064 12.904L133.696 13.2423L133.701 13.2473L134.064 12.904ZM135.322 28H134.822V28.5H135.322V28ZM140.502 28V28.5H141.002V28H140.502ZM13.3199 23.523H13.8199V23.023H13.3199V23.523ZM13.3199 28V28.5H13.8199V28H13.3199ZM8.69491 11.905V11.405H8.19491V11.905H8.69491ZM13.2829 11.905V12.405H13.7829V11.905H13.2829ZM13.2829 7.50199H13.7829V7.00199H13.2829V7.50199ZM8.69491 7.50199H8.19491V8.00199H8.69491V7.50199ZM8.69491 2.43299H9.19491V1.93299H8.69491V2.43299ZM3.47791 2.43299V1.93299H2.97791V2.43299H3.47791ZM3.47791 7.50199V8.00199H3.97791V7.50199H3.47791ZM0.628906 7.50199V7.00199H0.128906V7.50199H0.628906ZM0.628906 11.905H0.128906V12.405H0.628906V11.905ZM3.47791 11.905H3.97791V11.405H3.47791V11.905ZM5.29091 26.335L4.95269 26.7033L4.95642 26.7066L5.29091 26.335ZM29.543 8.464L29.2675 8.8813L29.2675 8.8813L29.543 8.464ZM20.441 8.50099L20.7005 8.92839L20.7005 8.92839L20.441 8.50099ZM17.185 12.164L16.7364 11.9431L16.735 11.946L17.185 12.164ZM17.185 23.375L16.7336 23.5903L16.7377 23.5986L17.185 23.375ZM20.441 27.001L20.1815 27.4284L20.1815 27.4284L20.441 27.001ZM29.543 27.038L29.8184 27.4553L29.8241 27.4515L29.543 27.038ZM32.17 23.708H32.67L31.7018 23.5324L32.17 23.708ZM32.17 28H31.67V28.5H32.17V28ZM37.35 28V28.5H37.85V28H37.35ZM37.35 7.50199H37.85V7.00199H37.35V7.50199ZM32.17 7.50199V7.00199H31.67V7.50199H32.17ZM32.17 11.757L31.7018 11.9326L32.67 11.757H32.17ZM22.809 13.385L23.1751 13.7255L23.1751 13.7255L22.809 13.385ZM30.616 13.422L30.2501 13.763L30.2583 13.7714L30.616 13.422ZM30.616 22.08L30.2543 21.7348L30.2541 21.735L30.616 22.08ZM22.809 22.117L22.4428 22.4576L22.4469 22.4618L22.809 22.117ZM74.0459 9.53699L73.678 9.87569L73.6837 9.88168L74.0459 9.53699ZM76.2289 28V28.5H76.7289V28H76.2289ZM71.0489 28H70.5489V28.5H71.0489V28ZM69.8279 13.052L69.4589 13.3894L69.4639 13.3949L69.4691 13.4002L69.8279 13.052ZM63.0569 13.126L63.4201 13.4696L63.4201 13.4696L63.0569 13.126ZM61.7619 28V28.5H62.2619V28H61.7619ZM56.5819 28H56.0819V28.5H56.5819V28ZM55.3609 13.052L54.9919 13.3894L54.9969 13.3949L55.0021 13.4002L55.3609 13.052ZM47.2949 28V28.5H47.7949V28H47.2949ZM42.0779 28H41.5779V28.5H42.0779V28ZM42.0779 7.50199V7.00199H41.5779V7.50199H42.0779ZM47.2949 7.50199H47.7949V7.00199H47.2949V7.50199ZM47.2949 11.387H46.7949L47.7579 11.5756L47.2949 11.387ZM49.8479 8.316L50.1104 8.74152L50.1129 8.73999L49.8479 8.316ZM58.2469 8.38999L57.9735 8.80865L57.9773 8.81113L58.2469 8.38999ZM61.0219 11.794L60.5603 11.9863L61.0011 13.0442L61.4768 12.0015L61.0219 11.794ZM63.8709 8.464L64.1425 8.88379L64.1445 8.88248L63.8709 8.464ZM93.2812 8.464L93.0058 8.8813L93.0058 8.8813L93.2812 8.464ZM84.1792 8.50099L84.4387 8.92839L84.4387 8.92839L84.1792 8.50099ZM80.9232 12.164L80.4746 11.9431L80.4732 11.946L80.9232 12.164ZM80.9232 23.375L80.4719 23.5903L80.476 23.5986L80.9232 23.375ZM93.2812 27.038L93.5567 27.4553L93.5624 27.4515L93.2812 27.038ZM95.9082 23.708H96.4082L95.4401 23.5324L95.9082 23.708ZM95.9082 28H95.4082V28.5H95.9082V28ZM101.088 28V28.5H101.588V28H101.088ZM101.088 7.50199H101.588V7.00199H101.088V7.50199ZM95.9082 7.50199V7.00199H95.4082V7.50199H95.9082ZM95.9082 11.757L95.4401 11.9326L96.4082 11.757H95.9082ZM86.5472 13.385L86.9133 13.7255L86.9133 13.7255L86.5472 13.385ZM94.3542 13.422L93.9883 13.763L93.9966 13.7714L94.3542 13.422ZM94.3542 22.08L93.9926 21.7348L93.9924 21.735L94.3542 22.08ZM86.5472 22.117L86.1811 22.4576L86.1852 22.4618L86.5472 22.117ZM116.768 28V28.5H117.268V28H116.768ZM116.768 23.523H117.268V23.023H116.768V23.523ZM108.739 26.335L108.401 26.7033L108.405 26.7066L108.739 26.335ZM106.926 11.905H107.426V11.405H106.926V11.905ZM104.077 11.905H103.577V12.405H104.077V11.905ZM104.077 7.50199V7.00199H103.577V7.50199H104.077ZM106.926 7.50199V8.00199H107.426V7.50199H106.926ZM106.926 2.43299V1.93299H106.426V2.43299H106.926ZM112.143 2.43299H112.643V1.93299H112.143V2.43299ZM112.143 7.50199H111.643V8.00199H112.143V7.50199ZM116.731 7.50199H117.231V7.00199H116.731V7.50199ZM116.731 11.905V12.405H117.231V11.905H116.731ZM112.143 11.905V11.405H111.643V11.905H112.143ZM164.185 18.75V19.25H164.6L164.676 18.841L164.185 18.75ZM149.163 18.75V18.25H148.642L148.663 18.7703L149.163 18.75ZM157.044 23.19L156.749 22.7856L156.744 22.79L157.044 23.19ZM158.598 20.785V20.285H158.195L158.109 20.6778L158.598 20.785ZM164.111 20.785L164.602 20.8782L164.714 20.285H164.111V20.785ZM158.931 27.297L158.723 26.8421L158.72 26.8435L158.931 27.297ZM148.978 27.001L148.735 27.4381L148.74 27.441L148.978 27.001ZM145.352 12.164L145.79 12.4039L145.792 12.401L145.352 12.164ZM148.978 8.50099L149.215 8.94101L149.215 8.94101L148.978 8.50099ZM159.597 8.50099L159.353 8.93775L159.356 8.9394L159.597 8.50099ZM163.112 11.979L162.673 12.22L162.678 12.2286L163.112 11.979ZM157.784 12.645L157.445 13.0128L157.45 13.0171L157.784 12.645ZM159.116 16.456V16.956H159.594L159.615 16.478L159.116 16.456ZM149.163 16.456L148.663 16.4266L148.632 16.956H149.163V16.456ZM168.517 18.75L168.025 18.841L168.101 19.25H168.517V18.75ZM183.539 18.75L184.039 18.7702L184.06 18.25H183.539V18.75ZM182.059 22.783L182.403 23.1462L182.403 23.1462L182.059 22.783ZM175.658 23.19L175.958 22.7899L175.952 22.7856L175.658 23.19ZM174.104 20.785L174.592 20.6778L174.506 20.285H174.104V20.785ZM168.591 20.785V20.285H167.987L168.1 20.8781L168.591 20.785ZM173.771 27.297L173.982 26.8435L173.979 26.8421L173.771 27.297ZM183.724 27.001L183.961 27.441L183.967 27.4381L183.724 27.001ZM187.35 23.338L187.789 23.5779L187.789 23.5779L187.35 23.338ZM187.35 12.164L186.91 12.401L186.911 12.4039L187.35 12.164ZM183.724 8.50098L183.487 8.94099L183.487 8.94099L183.724 8.50098ZM173.105 8.50098L173.345 8.9394L173.348 8.93772L173.105 8.50098ZM169.59 11.979L170.023 12.2287L170.028 12.2199L169.59 11.979ZM174.918 12.645L175.252 13.0171L175.257 13.0128L174.918 12.645ZM173.586 16.456L173.086 16.478L173.108 16.956H173.586V16.456ZM181.948 12.645L181.614 13.0171L181.614 13.0171L181.948 12.645ZM183.539 16.456V16.956H184.069L184.038 16.4266L183.539 16.456ZM197.585 0.619995H198.085V0.119995H197.585V0.619995ZM197.585 28V28.5H198.085V28H197.585ZM192.368 0.619995V0.119995H191.868V0.619995H192.368ZM192.368 28H191.868V28.5H192.368V28ZM132.732 7.70599C134.979 7.70599 136.724 8.43741 138.022 9.87245L138.764 9.20154C137.25 7.52857 135.221 6.70599 132.732 6.70599V7.70599ZM128.669 8.81353C129.84 8.07892 131.189 7.70599 132.732 7.70599V6.70599C131.02 6.70599 129.483 7.12241 128.137 7.96646L128.669 8.81353ZM126.205 11.7918C126.709 10.5084 127.527 9.52142 128.667 8.81495L128.14 7.96504C126.813 8.78791 125.855 9.94692 125.274 11.4262L126.205 11.7918ZM125.239 0.619995V11.609H126.239V0.619995H125.239ZM120.522 1.12H125.739V0.119995H120.522V1.12ZM121.022 28V0.619995H120.022V28H121.022ZM125.739 27.5H120.522V28.5H125.739V27.5ZM125.239 17.122V28H126.239V17.122H125.239ZM126.704 12.6389C125.703 13.7231 125.239 15.2433 125.239 17.122H126.239C126.239 15.3994 126.663 14.1569 127.439 13.3171L126.704 12.6389ZM130.623 11.035C129.024 11.035 127.699 11.5604 126.704 12.6389L127.439 13.3171C128.219 12.4716 129.263 12.035 130.623 12.035V11.035ZM134.432 12.5657C133.482 11.5319 132.192 11.035 130.623 11.035V12.035C131.965 12.035 132.969 12.4508 133.696 13.2423L134.432 12.5657ZM135.822 16.678C135.822 14.9659 135.38 13.5689 134.428 12.5607L133.701 13.2473C134.426 14.0151 134.822 15.1341 134.822 16.678H135.822ZM135.822 28V16.678H134.822V28H135.822ZM140.502 27.5H135.322V28.5H140.502V27.5ZM140.002 16.086V28H141.002V16.086H140.002ZM138.022 9.87245C139.32 11.3069 140.002 13.3549 140.002 16.086H141.002C141.002 13.1931 140.278 10.875 138.764 9.20154L138.022 9.87245ZM12.8199 23.523V28H13.8199V23.523H12.8199ZM11.2849 24.023H13.3199V23.023H11.2849V24.023ZM8.93335 23.2845C9.46835 23.8195 10.2999 24.023 11.2849 24.023V23.023C10.3953 23.023 9.8948 22.8318 9.64046 22.5774L8.93335 23.2845ZM8.19491 20.859C8.19491 21.8845 8.39473 22.7459 8.93335 23.2845L9.64046 22.5774C9.38975 22.3267 9.19491 21.8068 9.19491 20.859H8.19491ZM8.19491 11.905V20.859H9.19491V11.905H8.19491ZM13.2829 11.405H8.69491V12.405H13.2829V11.405ZM12.7829 7.50199V11.905H13.7829V7.50199H12.7829ZM8.69491 8.00199H13.2829V7.00199H8.69491V8.00199ZM8.19491 2.43299V7.50199H9.19491V2.43299H8.19491ZM3.47791 2.93299H8.69491V1.93299H3.47791V2.93299ZM3.97791 7.50199V2.43299H2.97791V7.50199H3.97791ZM0.628906 8.00199H3.47791V7.00199H0.628906V8.00199ZM1.12891 11.905V7.50199H0.128906V11.905H1.12891ZM3.47791 11.405H0.628906V12.405H3.47791V11.405ZM3.97791 20.785V11.905H2.97791V20.785H3.97791ZM5.62911 25.9667C4.57026 24.9943 3.97791 23.3144 3.97791 20.785H2.97791C2.97791 23.4356 3.59422 25.4557 4.9527 26.7033L5.62911 25.9667ZM10.5819 27.5C8.364 27.5 6.73689 26.9637 5.62539 25.9633L4.95642 26.7066C6.31159 27.9263 8.21182 28.5 10.5819 28.5V27.5ZM13.3199 27.5H10.5819V28.5H13.3199V27.5ZM25.103 7.74299C26.7486 7.74299 28.129 8.12983 29.2675 8.8813L29.8184 8.04669C28.4903 7.17016 26.9107 6.74299 25.103 6.74299V7.74299ZM20.7005 8.92839C21.9982 8.14049 23.4613 7.74299 25.103 7.74299V6.74299C23.2913 6.74299 21.6464 7.18417 20.1815 8.0736L20.7005 8.92839ZM17.6335 12.3848C18.3854 10.8576 19.409 9.71247 20.7005 8.92839L20.1815 8.0736C18.7102 8.96685 17.5632 10.2637 16.7364 11.9432L17.6335 12.3848ZM16.538 17.751C16.538 15.6639 16.9097 13.8792 17.635 12.382L16.735 11.946C15.9309 13.6061 15.538 15.5461 15.538 17.751H16.538ZM17.6363 23.1598C16.9096 21.6362 16.538 19.8378 16.538 17.751H15.538C15.538 19.9562 15.931 21.9071 16.7337 23.5902L17.6363 23.1598ZM20.7005 26.5736C19.407 25.7883 18.3834 24.6539 17.6322 23.1514L16.7377 23.5986C17.5652 25.2535 18.7122 26.5364 20.1815 27.4284L20.7005 26.5736ZM25.103 27.759C23.4613 27.759 21.9982 27.3615 20.7005 26.5736L20.1815 27.4284C21.6464 28.3178 23.2913 28.759 25.103 28.759V27.759ZM29.2675 26.6207C28.129 27.3722 26.7486 27.759 25.103 27.759V28.759C26.9107 28.759 28.4903 28.3318 29.8184 27.4553L29.2675 26.6207ZM31.7018 23.5324C31.2205 24.8159 30.4107 25.8433 29.2618 26.6245L29.8241 27.4515C31.1419 26.5554 32.0834 25.3627 32.6381 23.8836L31.7018 23.5324ZM32.67 28V23.708H31.67V28H32.67ZM37.35 27.5H32.17V28.5H37.35V27.5ZM36.85 7.50199V28H37.85V7.50199H36.85ZM32.17 8.00199H37.35V7.00199H32.17V8.00199ZM32.67 11.757V7.50199H31.67V11.757H32.67ZM29.2675 8.8813C30.4129 9.63721 31.221 10.6503 31.7018 11.9326L32.6381 11.5814C32.083 10.101 31.1397 8.91878 29.8184 8.04669L29.2675 8.8813ZM26.731 11.294C24.9831 11.294 23.5363 11.869 22.4429 13.0444L23.1751 13.7255C24.0549 12.7797 25.2228 12.294 26.731 12.294V11.294ZM30.9818 13.0811C29.8693 11.8872 28.4384 11.294 26.731 11.294V12.294C28.1809 12.294 29.34 12.7861 30.2502 13.7629L30.9818 13.0811ZM32.67 17.751C32.67 15.827 32.121 14.2473 30.9736 13.0726L30.2583 13.7714C31.1829 14.718 31.67 16.0243 31.67 17.751H32.67ZM30.9776 22.4252C32.1197 21.2288 32.67 19.6529 32.67 17.751H31.67C31.67 19.4504 31.1843 20.7605 30.2543 21.7348L30.9776 22.4252ZM26.731 24.171C28.4346 24.171 29.8643 23.5929 30.9778 22.425L30.2541 21.735C29.3449 22.6885 28.1846 23.171 26.731 23.171V24.171ZM22.4469 22.4618C23.5413 23.611 24.9868 24.171 26.731 24.171V23.171C25.2191 23.171 24.0499 22.695 23.171 21.7722L22.4469 22.4618ZM20.829 17.751C20.829 19.691 21.3482 21.2808 22.4429 22.4575L23.1751 21.7764C22.2964 20.8318 21.829 19.511 21.829 17.751H20.829ZM22.4429 13.0444C21.3482 14.2212 20.829 15.811 20.829 17.751H21.829C21.829 15.991 22.2964 14.6702 23.1751 13.7255L22.4429 13.0444ZM74.4137 9.19834C72.8713 7.52297 70.7666 6.70599 68.1629 6.70599V7.70599C70.5418 7.70599 72.3591 8.44302 73.678 9.87565L74.4137 9.19834ZM76.7289 16.086C76.7289 13.1661 75.9787 10.8428 74.4081 9.19231L73.6837 9.88168C75.0237 11.2898 75.7289 13.3326 75.7289 16.086H76.7289ZM76.7289 28V16.086H75.7289V28H76.7289ZM71.0489 28.5H76.2289V27.5H71.0489V28.5ZM70.5489 16.678V28H71.5489V16.678H70.5489ZM69.4691 13.4002C70.1645 14.1167 70.5489 15.1827 70.5489 16.678H71.5489C71.5489 15.016 71.1192 13.6646 70.1867 12.7038L69.4691 13.4002ZM66.5349 12.257C67.8313 12.257 68.7832 12.6504 69.4589 13.3894L70.1969 12.7146C69.2939 11.727 68.0505 11.257 66.5349 11.257V12.257ZM63.4201 13.4696C64.1738 12.6728 65.1932 12.257 66.5349 12.257V11.257C64.9659 11.257 63.6666 11.7538 62.6936 12.7824L63.4201 13.4696ZM62.2619 17.122C62.2619 15.4477 62.6742 14.2581 63.4201 13.4696L62.6936 12.7824C61.7129 13.8192 61.2619 15.2936 61.2619 17.122H62.2619ZM62.2619 28V17.122H61.2619V28H62.2619ZM56.5819 28.5H61.7619V27.5H56.5819V28.5ZM56.0819 16.678V28H57.0819V16.678H56.0819ZM55.0021 13.4002C55.6975 14.1167 56.0819 15.1827 56.0819 16.678H57.0819C57.0819 15.016 56.6522 13.6646 55.7197 12.7038L55.0021 13.4002ZM52.0679 12.257C53.3643 12.257 54.3162 12.6504 54.9919 13.3894L55.7299 12.7146C54.8269 11.727 53.5835 11.257 52.0679 11.257V12.257ZM48.9531 13.4696C49.7068 12.6728 50.7262 12.257 52.0679 12.257V11.257C50.4989 11.257 49.1996 11.7538 48.2266 12.7824L48.9531 13.4696ZM47.7949 17.122C47.7949 15.4477 48.2072 14.2581 48.9531 13.4696L48.2266 12.7824C47.2459 13.8192 46.7949 15.2936 46.7949 17.122H47.7949ZM47.7949 28V17.122H46.7949V28H47.7949ZM42.0779 28.5H47.2949V27.5H42.0779V28.5ZM41.5779 7.50199V28H42.5779V7.50199H41.5779ZM47.2949 7.00199H42.0779V8.00199H47.2949V7.00199ZM47.7949 11.387V7.50199H46.7949V11.387H47.7949ZM49.5853 7.89048C48.3305 8.66472 47.4121 9.77396 46.8318 11.1983L47.7579 11.5756C48.2629 10.336 49.0466 9.39793 50.1104 8.74151L49.5853 7.89048ZM53.9549 6.70599C52.3181 6.70599 50.8551 7.09684 49.5829 7.892L50.1129 8.73999C51.2086 8.05515 52.4837 7.70599 53.9549 7.70599V6.70599ZM58.5203 7.97136C57.219 7.12155 55.6902 6.70599 53.9549 6.70599V7.70599C55.5249 7.70599 56.8574 8.07977 57.9735 8.80863L58.5203 7.97136ZM61.4834 11.6017C60.8314 10.037 59.8437 8.81834 58.5164 7.96886L57.9773 8.81113C59.1167 9.54031 59.979 10.591 60.5603 11.9863L61.4834 11.6017ZM63.5992 8.04421C62.2585 8.91172 61.2466 10.0966 60.567 11.5865L61.4768 12.0015C62.0798 10.6794 62.9672 9.64427 64.1425 8.88378L63.5992 8.04421ZM68.1629 6.70599C66.4901 6.70599 64.9638 7.15198 63.5972 8.04551L64.1445 8.88248C65.3433 8.09867 66.6783 7.70599 68.1629 7.70599V6.70599ZM88.8412 7.74299C90.4869 7.74299 91.8672 8.12983 93.0058 8.8813L93.5567 8.04669C92.2286 7.17016 90.649 6.74299 88.8412 6.74299V7.74299ZM84.4387 8.92839C85.7365 8.14049 87.1996 7.74299 88.8412 7.74299V6.74299C87.0296 6.74299 85.3847 7.18417 83.9198 8.0736L84.4387 8.92839ZM81.3718 12.3848C82.1237 10.8576 83.1473 9.71247 84.4387 8.92839L83.9198 8.0736C82.4485 8.96685 81.3015 10.2637 80.4747 11.9432L81.3718 12.3848ZM80.2762 17.751C80.2762 15.6639 80.648 13.8792 81.3732 12.382L80.4732 11.946C79.6691 13.6061 79.2762 15.5461 79.2762 17.751H80.2762ZM81.3745 23.1598C80.6479 21.6362 80.2762 19.8378 80.2762 17.751H79.2762C79.2762 19.9562 79.6692 21.9071 80.4719 23.5902L81.3745 23.1598ZM84.4387 26.5736C83.1453 25.7883 82.1217 24.6539 81.3705 23.1514L80.476 23.5986C81.3035 25.2535 82.4505 26.5364 83.9198 27.4284L84.4387 26.5736ZM88.8412 27.759C87.1996 27.759 85.7365 27.3615 84.4387 26.5736L83.9198 27.4284C85.3847 28.3178 87.0296 28.759 88.8412 28.759V27.759ZM93.0058 26.6207C91.8672 27.3722 90.4869 27.759 88.8412 27.759V28.759C90.649 28.759 92.2286 28.3318 93.5567 27.4553L93.0058 26.6207ZM95.4401 23.5324C94.9588 24.8159 94.149 25.8433 93.0001 26.6245L93.5624 27.4515C94.8801 26.5554 95.8217 25.3627 96.3764 23.8836L95.4401 23.5324ZM96.4082 28V23.708H95.4082V28H96.4082ZM101.088 27.5H95.9082V28.5H101.088V27.5ZM100.588 7.50199V28H101.588V7.50199H100.588ZM95.9082 8.00199H101.088V7.00199H95.9082V8.00199ZM96.4082 11.757V7.50199H95.4082V11.757H96.4082ZM93.0058 8.8813C94.1511 9.63721 94.9592 10.6503 95.4401 11.9326L96.3764 11.5814C95.8213 10.101 94.878 8.91878 93.5567 8.04669L93.0058 8.8813ZM90.4692 11.294C88.7214 11.294 87.2746 11.869 86.1811 13.0444L86.9133 13.7255C87.7932 12.7797 88.9611 12.294 90.4692 12.294V11.294ZM94.7201 13.0811C93.6075 11.8872 92.1767 11.294 90.4692 11.294V12.294C91.9192 12.294 93.0783 12.7861 93.9884 13.7629L94.7201 13.0811ZM96.4082 17.751C96.4082 15.827 95.8593 14.2473 94.7119 13.0726L93.9966 13.7714C94.9212 14.718 95.4082 16.0243 95.4082 17.751H96.4082ZM94.7159 22.4252C95.858 21.2288 96.4082 19.6529 96.4082 17.751H95.4082C95.4082 19.4504 94.9226 20.7605 93.9926 21.7348L94.7159 22.4252ZM90.4692 24.171C92.1729 24.171 93.6026 23.5929 94.7161 22.425L93.9924 21.735C93.0832 22.6885 91.9229 23.171 90.4692 23.171V24.171ZM86.1852 22.4618C87.2796 23.611 88.7251 24.171 90.4692 24.171V23.171C88.9574 23.171 87.7882 22.695 86.9093 21.7722L86.1852 22.4618ZM84.5672 17.751C84.5672 19.691 85.0865 21.2808 86.1811 22.4575L86.9133 21.7764C86.0346 20.8318 85.5672 19.511 85.5672 17.751H84.5672ZM86.1811 13.0444C85.0865 14.2212 84.5672 15.811 84.5672 17.751H85.5672C85.5672 15.991 86.0346 14.6702 86.9133 13.7255L86.1811 13.0444ZM117.268 28V23.523H116.268V28H117.268ZM114.03 28.5H116.768V27.5H114.03V28.5ZM108.405 26.7066C109.76 27.9263 111.66 28.5 114.03 28.5V27.5C111.812 27.5 110.185 26.9637 109.074 25.9633L108.405 26.7066ZM106.426 20.785C106.426 23.4356 107.042 25.4557 108.401 26.7033L109.077 25.9667C108.019 24.9943 107.426 23.3144 107.426 20.785H106.426ZM106.426 11.905V20.785H107.426V11.905H106.426ZM104.077 12.405H106.926V11.405H104.077V12.405ZM103.577 7.50199V11.905H104.577V7.50199H103.577ZM106.926 7.00199H104.077V8.00199H106.926V7.00199ZM106.426 2.43299V7.50199H107.426V2.43299H106.426ZM112.143 1.93299H106.926V2.93299H112.143V1.93299ZM112.643 7.50199V2.43299H111.643V7.50199H112.643ZM116.731 7.00199H112.143V8.00199H116.731V7.00199ZM117.231 11.905V7.50199H116.231V11.905H117.231ZM112.143 12.405H116.731V11.405H112.143V12.405ZM112.643 20.859V11.905H111.643V20.859H112.643ZM113.089 22.5774C112.838 22.3267 112.643 21.8068 112.643 20.859H111.643C111.643 21.8845 111.843 22.7459 112.382 23.2846L113.089 22.5774ZM114.733 23.023C113.844 23.023 113.343 22.8318 113.089 22.5774L112.382 23.2846C112.917 23.8195 113.748 24.023 114.733 24.023V23.023ZM116.768 23.023H114.733V24.023H116.768V23.023ZM164.676 18.841C164.803 18.1536 164.87 17.5302 164.87 16.974H163.87C163.87 17.4538 163.812 18.0144 163.693 18.6589L164.676 18.841ZM149.163 19.25H164.185V18.25H149.163V19.25ZM150.986 22.4198C150.204 21.6797 149.733 20.4837 149.662 18.7297L148.663 18.7703C148.74 20.6669 149.256 22.1596 150.299 23.1462L150.986 22.4198ZM154.047 23.578C152.806 23.578 151.798 23.1879 150.986 22.4198L150.299 23.1462C151.312 24.1048 152.573 24.578 154.047 24.578V23.578ZM156.744 22.79C156.059 23.3036 155.172 23.578 154.047 23.578V24.578C155.339 24.578 156.45 24.2604 157.344 23.59L156.744 22.79ZM158.109 20.6778C157.913 21.5734 157.461 22.2678 156.749 22.7856L157.338 23.5944C158.254 22.9282 158.838 22.0193 159.086 20.8922L158.109 20.6778ZM164.111 20.285H158.598V21.285H164.111V20.285ZM162.765 24.9411C163.703 23.7429 164.316 22.3864 164.602 20.8782L163.619 20.6918C163.363 22.0449 162.816 23.2537 161.978 24.3248L162.765 24.9411ZM159.138 27.7519C160.612 27.0798 161.824 26.1435 162.765 24.9411L161.978 24.3248C161.143 25.3918 160.061 26.2316 158.723 26.8421L159.138 27.7519ZM154.306 28.759C156.072 28.759 157.686 28.4259 159.141 27.7505L158.72 26.8435C157.412 27.4508 155.943 27.759 154.306 27.759V28.759ZM148.74 27.441C150.376 28.324 152.236 28.759 154.306 28.759V27.759C152.379 27.759 150.687 27.3553 149.215 26.561L148.74 27.441ZM144.913 23.5779C145.821 25.2384 147.097 26.5283 148.735 27.4381L149.22 26.5639C147.75 25.7471 146.609 24.5949 145.79 23.0981L144.913 23.5779ZM143.557 17.751C143.557 19.9647 144.002 21.9127 144.913 23.5779L145.79 23.0981C144.974 21.6059 144.557 19.8293 144.557 17.751H143.557ZM144.913 11.9241C144.002 13.5893 143.557 15.5373 143.557 17.751H144.557C144.557 15.6727 144.974 13.896 145.79 12.4039L144.913 11.9241ZM148.74 8.06098C147.097 8.94755 145.819 10.2404 144.911 11.9269L145.792 12.401C146.61 10.8809 147.75 9.73177 149.215 8.94101L148.74 8.06098ZM154.306 6.74299C152.236 6.74299 150.376 7.17801 148.74 8.06098L149.215 8.94101C150.687 8.14664 152.379 7.74299 154.306 7.74299V6.74299ZM159.84 8.06425C158.249 7.1774 156.398 6.74299 154.306 6.74299V7.74299C156.258 7.74299 157.935 8.14725 159.353 8.93774L159.84 8.06425ZM163.55 11.738C162.688 10.1719 161.447 8.94537 159.837 8.06259L159.356 8.9394C160.805 9.73395 161.907 10.826 162.673 12.22L163.55 11.738ZM164.87 16.974C164.87 15.0221 164.432 13.2691 163.545 11.7293L162.678 12.2286C163.468 13.5995 163.87 15.1766 163.87 16.974H164.87ZM157.45 13.0171C158.269 13.7522 158.686 14.858 158.616 16.434L159.615 16.478C159.694 14.6993 159.222 13.2645 158.117 12.2729L157.45 13.0171ZM154.306 11.85C155.573 11.85 156.608 12.2419 157.445 13.0128L158.122 12.2772C157.085 11.3214 155.801 10.85 154.306 10.85V11.85ZM151.087 13.0171C151.949 12.2436 153.011 11.85 154.306 11.85V10.85C152.788 10.85 151.482 11.3197 150.42 12.2729L151.087 13.0171ZM149.662 16.4854C149.755 14.8985 150.25 13.7683 151.087 13.0171L150.42 12.2729C149.333 13.2483 148.767 14.6588 148.663 16.4266L149.662 16.4854ZM159.116 15.956H149.163V16.956H159.116V15.956ZM169.009 18.6589C168.889 18.0144 168.832 17.4538 168.832 16.974H167.832C167.832 17.5302 167.898 18.1536 168.025 18.841L169.009 18.6589ZM183.539 18.25H168.517V19.25H183.539V18.25ZM182.403 23.1462C183.446 22.1596 183.962 20.6669 184.039 18.7702L183.039 18.7297C182.968 20.4837 182.498 21.6797 181.715 22.4198L182.403 23.1462ZM178.655 24.578C180.128 24.578 181.389 24.1048 182.403 23.1462L181.715 22.4197C180.903 23.1879 179.895 23.578 178.655 23.578V24.578ZM175.358 23.59C176.252 24.2604 177.363 24.578 178.655 24.578V23.578C177.53 23.578 176.643 23.3036 175.958 22.79L175.358 23.59ZM173.616 20.8922C173.863 22.0192 174.448 22.9282 175.364 23.5943L175.952 22.7856C175.24 22.2678 174.789 21.5734 174.592 20.6778L173.616 20.8922ZM168.591 21.285H174.104V20.285H168.591V21.285ZM170.724 24.3248C169.886 23.2537 169.339 22.0449 169.082 20.6918L168.1 20.8781C168.386 22.3864 168.999 23.7429 169.936 24.9411L170.724 24.3248ZM173.979 26.8421C172.64 26.2315 171.559 25.3918 170.724 24.3248L169.936 24.9411C170.877 26.1435 172.09 27.0798 173.564 27.7519L173.979 26.8421ZM178.396 27.759C176.758 27.759 175.29 27.4508 173.982 26.8435L173.56 27.7505C175.015 28.4259 176.63 28.759 178.396 28.759V27.759ZM183.487 26.561C182.015 27.3553 180.322 27.759 178.396 27.759V28.759C180.466 28.759 182.325 28.324 183.961 27.441L183.487 26.561ZM186.911 23.0981C186.093 24.5949 184.952 25.7471 183.481 26.5639L183.967 27.4381C185.605 26.5282 186.881 25.2384 187.789 23.5779L186.911 23.0981ZM188.145 17.751C188.145 19.8293 187.727 21.6059 186.911 23.0981L187.789 23.5779C188.699 21.9127 189.145 19.9647 189.145 17.751H188.145ZM186.911 12.4039C187.727 13.896 188.145 15.6727 188.145 17.751H189.145C189.145 15.5373 188.699 13.5893 187.789 11.9241L186.911 12.4039ZM183.487 8.94099C184.952 9.73176 186.091 10.8809 186.91 12.401L187.79 11.9269C186.882 10.2404 185.604 8.94754 183.961 8.06097L183.487 8.94099ZM178.396 7.74298C180.322 7.74298 182.015 8.14663 183.487 8.94099L183.961 8.06097C182.325 7.178 180.466 6.74298 178.396 6.74298V7.74298ZM173.348 8.93772C174.767 8.14724 176.444 7.74298 178.396 7.74298V6.74298C176.303 6.74298 174.453 7.17739 172.862 8.06424L173.348 8.93772ZM170.028 12.2199C170.795 10.826 171.897 9.73393 173.345 8.93939L172.865 8.06258C171.255 8.94536 170.013 10.1719 169.152 11.738L170.028 12.2199ZM168.832 16.974C168.832 15.1765 169.233 13.5995 170.023 12.2286L169.157 11.7293C168.269 13.2691 167.832 15.0221 167.832 16.974H168.832ZM174.584 12.2729C173.479 13.2644 173.008 14.6993 173.086 16.478L174.086 16.4339C174.016 14.858 174.433 13.7522 175.252 13.0171L174.584 12.2729ZM178.396 10.85C176.901 10.85 175.617 11.3214 174.579 12.2772L175.257 13.0128C176.094 12.2419 177.129 11.85 178.396 11.85V10.85ZM182.282 12.2729C181.22 11.3197 179.914 10.85 178.396 10.85V11.85C179.69 11.85 180.752 12.2436 181.614 13.0171L182.282 12.2729ZM184.038 16.4266C183.934 14.6588 183.369 13.2483 182.282 12.2729L181.614 13.0171C182.451 13.7683 182.947 14.8985 183.04 16.4853L184.038 16.4266ZM173.586 16.956H183.539V15.956H173.586V16.956ZM197.085 0.619995V28H198.085V0.619995H197.085ZM192.368 1.12H197.585V0.119995H192.368V1.12ZM192.868 28V0.619995H191.868V28H192.868ZM197.585 27.5H192.368V28.5H197.585V27.5Z" fill="white"/>
</svg>
