<svg width="150" height="150" viewBox="0 0 150 150" fill="none" xmlns="http://www.w3.org/2000/svg">
<path d="M75 150C149.422 150 150 116.422 150 75C150 33.5781 149.422 0 75 0C0.578122 0 0 33.5781 0 75C0 116.422 0.578122 150 75 150Z" fill="#31C2DF"/>
<path fill-rule="evenodd" clip-rule="evenodd" d="M82.3822 56.6282C82.3822 60.6309 79.1375 63.8756 75.1349 63.8756C71.1322 63.8756 67.8875 60.6309 67.8875 56.6282C67.8875 52.6256 71.1322 49.3809 75.1349 49.3809C79.1375 49.3809 82.3822 52.6256 82.3822 56.6282ZM78.619 68.8134C77.6517 68.3936 76.5876 68.1602 75.4711 68.1602C74.0922 68.1602 72.7954 68.5144 71.6651 69.1359C71.6561 67.4303 71.1003 65.8553 70.1702 64.5648C70.7799 64.4378 71.4138 64.3701 72.0615 64.3701H78.211C78.86 64.3701 79.4939 64.4384 80.1084 64.5669C79.2357 65.7752 78.6915 67.2349 78.619 68.8134ZM86.5177 76.2425C90.2063 76.2425 93.1947 73.2527 93.1947 69.5655C93.1947 65.8769 90.2063 62.8884 86.5177 62.8884C82.8636 62.8884 79.9007 65.8237 79.8455 69.4647C81.9508 70.7849 83.4271 73.0179 83.6964 75.61C84.5539 76.0119 85.5075 76.2425 86.5177 76.2425ZM57.0759 69.5648C57.0759 65.8769 60.0643 62.8878 63.7536 62.8878C67.4402 62.8878 70.43 65.8769 70.43 69.5648C70.43 69.6542 70.4241 69.7423 70.4182 69.8304C70.4158 69.8668 70.4134 69.9032 70.4113 69.9398C68.777 71.2103 67.6328 73.0767 67.3048 75.211C66.2746 75.8593 65.06 76.2412 63.7536 76.2412C60.0643 76.2412 57.0759 73.2527 57.0759 69.5648ZM90.8547 62.7455C92.96 64.0657 94.4362 66.2988 94.7048 68.8916C95.5617 69.2927 96.516 69.5241 97.5262 69.5241C101.215 69.5241 104.203 66.5349 104.203 62.847C104.203 59.1591 101.215 56.17 97.5262 56.17C93.8728 56.1693 90.9099 59.1053 90.8547 62.7455ZM82.1488 76.4589C82.1488 80.1469 79.1591 83.1366 75.4711 83.1366C71.7831 83.1366 68.7934 80.1469 68.7934 76.4589C68.7934 72.7709 71.7831 69.7812 75.4711 69.7812C79.1591 69.7812 82.1488 72.7709 82.1488 76.4589ZM89.3514 76.6974H83.728C83.6666 78.947 82.7068 80.9729 81.1877 82.4292C85.3776 83.6762 88.4441 87.5623 88.4441 92.1526V94.2876C93.9956 94.0826 97.1954 92.511 97.4059 92.4033L97.852 92.1768H97.8983V85.247C97.8997 80.5324 94.0647 76.6974 89.3514 76.6974ZM94.7374 69.9791H100.359C105.074 69.9791 108.909 73.8148 108.909 78.5288V85.4586H108.861L108.415 85.6844C108.205 85.7928 105.004 87.3643 99.4534 87.5687V85.4337C99.4534 80.8433 96.3876 76.9579 92.1977 75.7109C93.7161 74.2547 94.6766 72.2288 94.7374 69.9791ZM69.7505 82.4285C68.239 80.9792 67.282 78.9643 67.2115 76.7292L67.1436 76.7242C66.9586 76.7104 66.774 76.6967 66.5846 76.6967H60.9205C56.2058 76.6967 52.3701 80.5324 52.3701 85.2471V92.1775L52.3874 92.2846L52.8645 92.4351C56.4737 93.5627 59.6956 94.0805 62.4927 94.2449V92.152C62.4941 87.5623 65.5592 83.6762 69.7505 82.4285ZM72.6374 83.5914H78.3036C83.0169 83.5914 86.8518 87.4271 86.8498 92.1411V99.0715H86.8028L86.3568 99.298C86.1317 99.4119 82.49 101.204 76.2059 101.204C72.9896 101.204 69.0807 100.734 64.5815 99.3291L64.105 99.1799L64.0871 99.0715V92.1411C64.0871 87.4285 67.9227 83.5914 72.6374 83.5914ZM52.6471 69.7365C53.6573 69.7365 54.6109 69.5052 55.4684 69.104C55.7377 66.5112 57.2133 64.2775 59.3186 62.9573C59.2634 59.3177 56.3005 56.3817 52.6471 56.3817C48.9578 56.3817 45.9694 59.3709 45.9694 63.0595C45.9694 66.7474 48.9578 69.7365 52.6471 69.7365ZM55.4359 70.1907C55.4967 72.441 56.4572 74.4676 57.9749 75.9238C53.7843 77.1702 50.7192 81.0562 50.7192 85.6459V87.7809C45.1676 87.5772 41.9686 86.0036 41.7573 85.8973L41.3113 85.6715H41.2636V78.741C41.2636 74.0271 45.0986 70.1914 49.8133 70.1907H55.4359ZM60.4564 62.2276C61.2574 61.9031 62.4796 61.5047 63.6465 61.5047C65.0047 61.5047 66.3332 61.854 67.5181 62.519C67.7818 62.2601 68.0235 61.9783 68.2431 61.6766C67.1176 60.1983 66.5031 58.3864 66.5031 56.5228C66.5031 55.2675 66.7834 54.0218 67.3178 52.8901C66.1012 51.7908 64.549 51.1908 62.8994 51.1908C59.8971 51.1908 57.2836 53.2229 56.5186 56.085C58.7613 57.39 60.2223 59.6714 60.4564 62.2276ZM82.8946 62.338C82.5867 62.0149 82.3153 61.6676 82.0833 61.2989C83.0452 59.8847 83.552 58.2427 83.5527 56.52C83.5527 55.3952 83.331 54.298 82.8933 53.2539C84.1396 51.9365 85.8658 51.188 87.6887 51.188C90.508 51.188 92.9979 52.9812 93.9176 55.6085C91.4091 56.848 89.7333 59.2937 89.4985 62.0646C88.7486 61.8091 87.6045 61.5039 86.4106 61.5039C85.1967 61.5039 83.9911 61.7912 82.8946 62.338Z" fill="#DEF2F7"/>
</svg>
