<svg width="150" height="150" viewBox="0 0 150 150" fill="none" xmlns="http://www.w3.org/2000/svg">
<path d="M75 150C149.422 150 150 116.422 150 75C150 33.5781 149.422 0 75 0C0.578122 0 0 33.5781 0 75C0 116.422 0.578122 150 75 150Z" fill="#6610CE"/>
<path d="M39.2343 108.909L55.896 62.568L86.0905 92.2698L39.2343 108.909ZM80.3019 78.2742L76.9383 74.9308L94.5387 57.3586C96.3118 55.5443 98.6846 54.6243 101.657 54.5983C104.63 54.5724 107.081 55.4666 109.01 57.2808L110.262 58.5249L106.742 61.946L105.334 60.5465C104.291 59.5616 103.091 59.0562 101.735 59.0303C100.379 59.0044 99.2322 59.5098 98.2935 60.5465L80.3019 78.2742ZM66.2216 64.7451L62.8579 61.2462L64.8136 59.2247C66.0651 58.0324 66.6518 56.6588 66.5736 55.1037C66.4954 53.5487 65.9087 52.2269 64.8136 51.1383L62.6233 48.9612L66.0651 45.5401L68.099 47.5617C70.1328 49.6869 71.1367 52.2528 71.1106 55.2592C71.0845 58.2657 70.0546 60.8316 68.0207 62.9568L66.2216 64.7451ZM73.4182 71.5097L69.9763 68.0885L81.0842 57.0476C82.0229 56.0627 82.4792 54.7927 82.4531 53.2377C82.427 51.6826 81.9446 50.4126 81.006 49.4278L76.2343 44.6848L79.7544 41.2637L84.6043 46.0844C86.4295 47.9504 87.3551 50.3219 87.3812 53.1988C87.4073 56.0757 86.5077 58.4471 84.6825 60.3132L73.4182 71.5097ZM87.4203 85.4275L83.9002 81.9286L87.1074 78.8962C89.1934 76.8228 91.6575 75.7602 94.4996 75.7083C97.3418 75.6565 99.858 76.6673 102.048 78.7407L105.803 82.4729L102.361 85.9718L98.4499 82.1618C97.1984 80.9696 95.8946 80.3735 94.5387 80.3735C93.1828 80.3735 91.9052 80.9696 90.7057 82.1618L87.4203 85.4275Z" fill="#CFBDED"/>
</svg>
