<svg width="150" height="150" viewBox="0 0 150 150" fill="none" xmlns="http://www.w3.org/2000/svg">
<path d="M75 150C149.422 150 150 116.422 150 75C150 33.5781 149.422 0 75 0C0.578122 0 0 33.5781 0 75C0 116.422 0.578122 150 75 150Z" fill="#FE5454"/>
<path fill-rule="evenodd" clip-rule="evenodd" d="M104.66 47.1975C104.66 46.568 104.41 45.9643 103.965 45.5191C103.52 45.074 102.916 44.8239 102.287 44.8239H97.5397V42.4504C97.5397 42.1357 97.4147 41.8338 97.1921 41.6113C96.9696 41.3887 96.6677 41.2637 96.353 41.2637C96.0382 41.2637 95.7364 41.3887 95.5138 41.6113C95.2912 41.8338 95.1662 42.1357 95.1662 42.4504V44.8239H86.8589V42.4504C86.8589 42.1357 86.7339 41.8338 86.5113 41.6113C86.2887 41.3887 85.9869 41.2637 85.6721 41.2637C85.3574 41.2637 85.0555 41.3887 84.833 41.6113C84.6104 41.8338 84.4854 42.1357 84.4854 42.4504V44.8239H76.1781V42.4504C76.1781 42.1357 76.053 41.8338 75.8305 41.6113C75.6079 41.3887 75.3061 41.2637 74.9913 41.2637C74.6766 41.2637 74.3747 41.3887 74.1521 41.6113C73.9296 41.8338 73.8045 42.1357 73.8045 42.4504V44.8239H65.4972V42.4504C65.4972 42.1357 65.3722 41.8338 65.1496 41.6113C64.9271 41.3887 64.6252 41.2637 64.3105 41.2637C63.9957 41.2637 63.6939 41.3887 63.4713 41.6113C63.2487 41.8338 63.1237 42.1357 63.1237 42.4504V44.8239H54.8164V42.4504C54.8164 42.1357 54.6914 41.8338 54.4688 41.6113C54.2462 41.3887 53.9444 41.2637 53.6296 41.2637C53.3149 41.2637 53.013 41.3887 52.7905 41.6113C52.5679 41.8338 52.4429 42.1357 52.4429 42.4504V44.8239H47.6958C47.0663 44.8239 46.4626 45.074 46.0175 45.5191C45.5724 45.9643 45.3223 46.568 45.3223 47.1975V49.571H104.66V47.1975ZM66.684 108.909V101.788C66.684 99.585 67.5592 97.472 69.1171 95.9141C70.6751 94.3562 72.7881 93.4809 74.9913 93.4809C77.1945 93.4809 79.3075 94.3562 80.8655 95.9141C82.4234 97.472 83.2986 99.585 83.2986 101.788V108.909H66.684ZM50.0694 106.535V108.909H64.3105V101.788C64.3105 101.447 64.3307 101.108 64.3615 100.775C64.3462 100.759 64.3314 100.742 64.3167 100.725C64.2961 100.702 64.2756 100.678 64.2535 100.656C63.0916 99.4932 61.6106 98.7011 59.9983 98.3802C58.3859 98.0593 56.7145 98.224 55.1958 98.8535C53.6771 99.483 52.3793 100.549 51.4667 101.916C50.5541 103.284 50.0678 104.891 50.0694 106.535ZM99.9133 108.909V106.535C99.9155 104.878 99.4213 103.257 98.4941 101.883C97.567 100.509 96.2495 99.4445 94.7116 98.8261C93.1736 98.2078 91.4857 98.0643 89.8655 98.4142C88.2452 98.764 86.7669 99.5912 85.6211 100.789C85.652 101.118 85.6721 101.451 85.6721 101.788V108.909H99.9133ZM69.8716 68.4084C69.8848 68.1111 69.7866 67.8196 69.5963 67.5907L66.7872 64.2263C66.7443 64.1789 66.7149 64.1208 66.7022 64.0582C66.6895 63.9955 66.6938 63.9306 66.7148 63.8702C66.7367 63.8019 66.7761 63.7406 66.8293 63.6925C66.8824 63.6443 66.9473 63.6111 67.0175 63.5961L71.4085 62.4402C71.6824 62.367 71.9214 62.1988 72.0825 61.9655L74.8655 57.9448C74.8792 57.9203 74.8992 57.8999 74.9234 57.8858C74.9476 57.8716 74.9751 57.8641 75.0032 57.8641C75.0312 57.8641 75.0587 57.8716 75.0829 57.8858C75.1071 57.8999 75.1271 57.9203 75.1408 57.9448L77.925 61.9643C78.0854 62.1978 78.3241 62.3662 78.5979 62.439L82.9889 63.5949C83.0591 63.61 83.1241 63.6434 83.1773 63.6918C83.2304 63.7402 83.2698 63.8017 83.2915 63.8702C83.3125 63.9306 83.3169 63.9955 83.3041 64.0582C83.2914 64.1208 83.262 64.1789 83.2191 64.2263L80.3994 67.5955C80.2078 67.8237 80.1091 68.1156 80.1228 68.4132L80.3044 73.2789C80.2819 73.2947 80.2559 73.3049 80.2287 73.3086C80.2014 73.3123 80.1737 73.3095 80.1478 73.3002L75.4007 71.602C75.1423 71.5086 74.8593 71.5086 74.6009 71.602L69.8538 73.3002C69.7838 73.324 69.7292 73.3026 69.6509 73.1934L69.8716 68.4084ZM58.3767 95.8546C60.9984 95.8546 63.1237 93.7293 63.1237 91.1075C63.1237 88.4858 60.9984 86.3605 58.3767 86.3605C55.755 86.3605 53.6297 88.4858 53.6297 91.1075C53.6297 93.7293 55.755 95.8546 58.3767 95.8546ZM53.0837 86.3605H47.6959C47.0664 86.3605 46.4626 86.1104 46.0175 85.6653C45.5724 85.2201 45.3223 84.6164 45.3223 83.9869V51.9444H104.66V83.9869C104.66 84.6164 104.41 85.2201 103.965 85.6653C103.52 86.1104 102.916 86.3605 102.287 86.3605H96.8989C96.2339 85.614 95.4185 85.0166 94.5063 84.6075C93.5941 84.1985 92.6057 83.987 91.6059 83.987C90.6062 83.987 89.6178 84.1985 88.7056 84.6075C87.7934 85.0166 86.978 85.614 86.313 86.3605H82.1119C82.1119 84.472 81.3617 82.6608 80.0263 81.3255C78.6909 79.9901 76.8798 79.2399 74.9913 79.2399C73.1028 79.2399 71.2917 79.9901 69.9563 81.3255C68.621 82.6608 67.8708 84.472 67.8708 86.3605H63.6696C63.0046 85.614 62.1893 85.0166 61.2771 84.6075C60.3648 84.1985 59.3764 83.987 58.3767 83.987C57.377 83.987 56.3885 84.1985 55.4763 84.6075C54.5641 85.0166 53.7487 85.614 53.0837 86.3605ZM65.1821 61.9661C64.8391 62.2899 64.5841 62.6956 64.441 63.1451C64.299 63.5863 64.2716 64.0564 64.3615 64.5111C64.4514 64.9658 64.6556 65.3901 64.9549 65.7441L67.4779 68.7584L67.2738 73.0818C67.2555 73.4881 67.3377 73.8927 67.513 74.2597C67.6883 74.6267 67.9514 74.9448 68.279 75.1859C68.6145 75.4344 69.0062 75.5961 69.4192 75.6567C69.8322 75.7174 70.2538 75.6751 70.6466 75.5336L74.9913 73.979L79.3325 75.5336C79.7253 75.6748 80.1468 75.7169 80.5598 75.6563C80.9728 75.5956 81.3644 75.4341 81.7001 75.1859C82.0281 74.945 82.2916 74.6267 82.4669 74.2594C82.6423 73.8921 82.7242 73.4872 82.7052 73.0806L82.5094 68.7596L85.0313 65.7453C85.3308 65.3914 85.5352 64.9672 85.6253 64.5124C85.7154 64.0577 85.6883 63.5876 85.5464 63.1463C85.4032 62.6968 85.1482 62.2911 84.8053 61.9673C84.4623 61.6434 84.0427 61.4121 83.5858 61.2949L79.6197 60.2517L77.0765 56.5918C76.8415 56.2556 76.5288 55.9811 76.1651 55.7916C75.8014 55.6021 75.3973 55.5031 74.9872 55.5031C74.577 55.5031 74.1729 55.6021 73.8092 55.7916C73.4455 55.9811 73.1329 56.2556 72.8979 56.5918L70.363 60.2517L66.4016 61.2937C65.9447 61.4109 65.525 61.6422 65.1821 61.9661ZM74.9913 91.1076C77.613 91.1076 79.7383 88.9823 79.7383 86.3606C79.7383 83.7389 77.613 81.6136 74.9913 81.6136C72.3696 81.6136 70.2443 83.7389 70.2443 86.3606C70.2443 88.9823 72.3696 91.1076 74.9913 91.1076ZM96.353 91.1075C96.353 93.7293 94.2277 95.8546 91.6059 95.8546C88.9842 95.8546 86.8589 93.7293 86.8589 91.1075C86.8589 88.4858 88.9842 86.3605 91.6059 86.3605C94.2277 86.3605 96.353 88.4858 96.353 91.1075Z" fill="#DDF0F1"/>
</svg>
