<svg width="150" height="150" viewBox="0 0 150 150" fill="none" xmlns="http://www.w3.org/2000/svg">
<path d="M75 150C149.422 150 150 116.422 150 75C150 33.5781 149.422 0 75 0C0.578122 0 0 33.5781 0 75C0 116.422 0.578122 150 75 150Z" fill="#2480D0"/>
<path d="M42.3999 41.2669L49.564 55.9802H62.4993L55.3351 41.2669H64.0913L71.2554 55.9802H84.2902L77.0265 41.2669H85.8822L93.0463 55.9802H105.982L98.8175 41.2669H107.872C110.327 41.2669 112.466 42.1885 114.29 44.0318C116.114 45.8751 117.026 47.9817 117.026 50.3517V99.9228C117.026 102.293 116.114 104.383 114.29 106.193C112.466 108.004 110.327 108.909 107.872 108.909H42.2009C39.7465 108.909 37.6238 108.053 35.8327 106.341C34.0417 104.63 33.1462 102.556 33.1462 100.12V50.3517C33.1462 47.9817 34.0583 45.8586 35.8825 43.9824C37.7067 42.1063 39.8791 41.2011 42.3999 41.2669Z" fill="#B7CBF3"/>
</svg>
