<svg width="150" height="150" viewBox="0 0 150 150" fill="none" xmlns="http://www.w3.org/2000/svg">
<path d="M75 150C149.422 150 150 116.422 150 75C150 33.5781 149.422 0 75 0C0.578122 0 0 33.5781 0 75C0 116.422 0.578122 150 75 150Z" fill="#E68A67"/>
<path fill-rule="evenodd" clip-rule="evenodd" d="M53.1544 75.1442C53.1544 82.7939 59.3772 89.0168 67.0269 89.0168C67.6942 89.0168 68.3561 88.9705 69.0087 88.8754V100.908H63.0634C61.9694 100.908 61.0816 100.02 61.0816 98.9257V96.1195C59.4605 95.6584 57.8975 95.0057 56.4085 94.1694L54.4148 96.1644C53.6406 96.9387 52.3868 96.9387 51.6125 96.1644L46.0067 90.5586C45.2322 89.7841 45.2353 88.5278 46.0067 87.7563L48.0017 85.7613C47.1641 84.2737 46.5127 82.7107 46.0516 81.0896H43.2454C42.1515 81.0896 41.2636 80.2017 41.2636 79.1078V71.1806C41.2636 70.0867 42.1515 69.1988 43.2454 69.1988H46.0516C46.5127 67.5777 47.1641 66.0147 48.0017 64.5257L46.0067 62.532C45.2353 61.7606 45.2322 60.5043 46.0067 59.7298L51.6125 54.124C52.3868 53.3497 53.6406 53.3497 54.4148 54.124L56.4098 56.119C57.8975 55.2813 59.4605 54.63 61.0816 54.1689V51.3627C61.0816 50.2687 61.9694 49.3809 63.0634 49.3809H69.0087V61.413C68.3561 61.3179 67.6942 61.2716 67.0269 61.2716C59.3772 61.2716 53.1544 67.4945 53.1544 75.1442ZM69.0087 69.5398V65.4335C68.36 65.3014 67.6968 65.2353 67.0269 65.2353C61.5638 65.2353 57.118 69.6811 57.118 75.1443C57.118 80.6074 61.5638 85.0533 67.0269 85.0533C67.6968 85.0533 68.36 84.9872 69.0087 84.8551V80.7488C68.3891 80.9694 67.7219 81.0897 67.0269 81.0897C63.7491 81.0897 61.0816 78.4222 61.0816 75.1443C61.0816 71.8664 63.7491 69.1989 67.0269 69.1989C67.7219 69.1989 68.3891 69.3191 69.0087 69.5398ZM69.0087 75.1443C69.0087 74.0516 68.1196 73.1625 67.0269 73.1625C65.9343 73.1625 65.0451 74.0516 65.0451 75.1443C65.0451 76.2369 65.9343 77.1261 67.0269 77.1261C68.1196 77.1261 69.0087 76.2369 69.0087 75.1443ZM97.0181 61.2717V50.541L107.749 61.2717H97.0181ZM87.1091 61.2717H78.9177C77.8238 61.2717 76.9359 62.1596 76.9359 63.2535C76.9359 64.3475 77.8238 65.2353 78.9177 65.2353H87.1091C88.2031 65.2353 89.0909 64.3475 89.0909 63.2535C89.0909 62.1596 88.2031 61.2717 87.1091 61.2717ZM78.9177 89.0169H98.9999C100.094 89.0169 100.982 88.129 100.982 87.0351C100.982 85.9411 100.094 85.0533 98.9999 85.0533H78.9177C77.8238 85.0533 76.9359 85.9411 76.9359 87.0351C76.9359 88.129 77.8238 89.0169 78.9177 89.0169ZM78.9177 81.0897H98.9999C100.094 81.0897 100.982 80.2018 100.982 79.1079C100.982 78.0139 100.094 77.1261 98.9999 77.1261H78.9177C77.8238 77.1261 76.9359 78.0139 76.9359 79.1079C76.9359 80.2018 77.8238 81.0897 78.9177 81.0897ZM78.9177 73.1625H98.9999C100.094 73.1625 100.982 72.2747 100.982 71.1807C100.982 70.0868 100.094 69.1989 98.9999 69.1989H78.9177C77.8238 69.1989 76.9359 70.0868 76.9359 71.1807C76.9359 72.2747 77.8238 73.1625 78.9177 73.1625ZM93.0545 63.2535C93.0545 64.3475 93.9424 65.2353 95.0363 65.2353H108.909V98.9258C108.909 100.02 108.021 100.908 106.927 100.908H72.9723V49.381H93.0545V63.2535Z" fill="#ECD6E1"/>
</svg>
