<svg width="150" height="150" viewBox="0 0 150 150" fill="none" xmlns="http://www.w3.org/2000/svg">
<path d="M75 150C149.422 150 150 116.422 150 75C150 33.5781 149.422 0 75 0C0.578122 0 0 33.5781 0 75C0 116.422 0.578122 150 75 150Z" fill="#2BC88F"/>
<path d="M100.277 79.1528V71.1187H118.379V79.1528H100.277ZM107.558 108.909L92.9974 97.9983L97.818 91.5512L112.28 102.363L107.558 108.909ZM98.1131 58.522L93.2925 52.0749L107.558 41.2635L112.28 47.7107L98.1131 58.522ZM43.9061 105.14V89.3691H39.1839C36.8228 89.1046 34.888 88.0962 33.3795 86.3439C31.8711 84.5916 31.1168 82.5252 31.1168 80.1447V70.0277C31.1168 67.5149 32.0022 65.3328 33.7731 63.4814C35.5439 61.6299 37.741 60.7041 40.3645 60.7041H56.6954L79.421 47.0164V103.156L56.6954 89.3691H53.5473V105.14H43.9061ZM82.9627 90.7577V59.3155C85.3238 61.0347 87.2586 63.2664 88.7671 66.0106C90.2755 68.7548 91.0298 71.78 91.0298 75.0862C91.0298 78.3924 90.2755 81.4176 88.7671 84.1618C87.2586 86.9059 85.3238 89.1046 82.9627 90.7577Z" fill="#C7E2E9"/>
</svg>
