<svg width="151" height="150" viewBox="0 0 151 150" fill="none" xmlns="http://www.w3.org/2000/svg">
<path d="M75.5 150C149.922 150 150.5 116.422 150.5 75C150.5 33.5781 149.922 0 75.5 0C1.07812 0 0.5 33.5781 0.5 75C0.5 116.422 1.07812 150 75.5 150Z" fill="#FB4179"/>
<path d="M103.28 74.7047L101.29 70.4549L96.9669 68.33L101.29 66.2737L103.28 61.9553L105.407 66.2737L109.661 68.33L105.407 70.4549L103.28 74.7047ZM94.5654 61.1328L91.6149 54.5524L84.9592 51.5364L91.6149 48.5204L94.5654 41.9401L97.6531 48.5204L104.24 51.5364L97.6531 54.5524L94.5654 61.1328ZM64.7862 108.909C63.1395 108.909 61.71 108.246 60.4978 106.921C59.2856 105.596 58.6794 104.019 58.6794 102.191H70.9616C70.9616 104.019 70.3327 105.596 69.0747 106.921C67.8168 108.246 66.3873 108.909 64.7862 108.909ZM53.3274 97.3933V92.6636H76.245V97.3933H53.3274ZM53.6019 87.934C50.3083 85.7862 47.6666 83.1016 45.6768 79.8799C43.6869 76.6583 42.692 73.0597 42.692 69.084C42.692 63.0977 44.8648 57.9226 49.2105 53.5585C53.5562 49.1944 58.7481 47.0124 64.7862 47.0124C70.7787 47.0124 75.9591 49.1944 80.3277 53.5585C84.6962 57.9226 86.8805 63.0977 86.8805 69.084C86.8805 73.014 85.9084 76.6012 83.9643 79.8456C82.0202 83.0901 79.3556 85.7862 75.9706 87.934H53.6019ZM55.7976 81.6964H73.9121C75.9248 80.2341 77.5487 78.4176 78.7838 76.247C80.0189 74.0764 80.6364 71.6888 80.6364 69.084C80.6364 64.7885 79.0697 61.0871 75.9363 57.9797C72.8028 54.8723 69.0861 53.3186 64.7862 53.3186C60.4406 53.3186 56.7239 54.8723 53.6362 57.9797C50.5485 61.0871 49.0047 64.7885 49.0047 69.084C49.0047 71.6888 49.6108 74.0764 50.823 76.247C52.0352 78.4176 53.6934 80.2341 55.7976 81.6964ZM55.7976 81.6964C53.6934 80.2341 52.0352 78.4176 50.823 76.247C49.6108 74.0764 49.0047 71.6888 49.0047 69.084C49.0047 64.7885 50.5485 61.0871 53.6362 57.9797C56.7239 54.8723 60.4406 53.3186 64.7862 53.3186C69.0861 53.3186 72.8028 54.8723 75.9363 57.9797C79.0697 61.0871 80.6364 64.7885 80.6364 69.084C80.6364 71.6888 80.0189 74.0764 78.7838 76.247C77.5487 78.4176 75.9248 80.2341 73.9121 81.6964H55.7976Z" fill="#F1C7E4"/>
</svg>
