<svg width="150" height="150" viewBox="0 0 150 150" fill="none" xmlns="http://www.w3.org/2000/svg">
<path d="M75 150C149.422 150 150 116.422 150 75C150 33.5781 149.422 0 75 0C0.578122 0 0 33.5781 0 75C0 116.422 0.578122 150 75 150Z" fill="#F819BF"/>
<path d="M41.9401 88.2142V78.8241L68.0136 52.9329L82.6002 67.5195L108.765 41.2637V50.6538L82.6002 76.9096L68.0136 62.3231L41.9401 88.2142ZM102.11 108.909V71.9867L108.765 65.3315V108.909H102.11ZM56.9825 108.909V86.5732L63.6376 79.9181V108.909H56.9825ZM72.0249 108.909V79.9181L78.68 86.6644V108.909H72.0249ZM87.0673 108.909V86.6644L93.7224 80.0093V108.909H87.0673ZM41.9401 108.909V101.16L48.5952 94.5047V108.909H41.9401Z" fill="#F0BFF2"/>
</svg>
